<svg width="127" height="36" viewBox="0 0 127 36" fill="none" xmlns="http://www.w3.org/2000/svg">
<path d="M47.9598 17.4081C48.9038 17.5841 49.6798 18.0561 50.2878 18.8241C50.8958 19.5921 51.1998 20.4721 51.1998 21.4641C51.1998 22.3601 50.9758 23.1521 50.5278 23.8401C50.0958 24.5121 49.4638 25.0401 48.6318 25.4241C47.7998 25.8081 46.8158 26.0001 45.6798 26.0001H38.4558V9.24808H45.3678C46.5038 9.24808 47.4798 9.43208 48.2958 9.80008C49.1278 10.1681 49.7518 10.6801 50.1678 11.3361C50.5998 11.9921 50.8158 12.7361 50.8158 13.5681C50.8158 14.5441 50.5518 15.3601 50.0238 16.0161C49.5118 16.6721 48.8238 17.1361 47.9598 17.4081ZM41.8158 16.1601H44.8878C45.6878 16.1601 46.3038 15.9841 46.7358 15.6321C47.1678 15.2641 47.3838 14.7441 47.3838 14.0721C47.3838 13.4001 47.1678 12.8801 46.7358 12.5121C46.3038 12.1441 45.6878 11.9601 44.8878 11.9601H41.8158V16.1601ZM45.1998 23.2641C46.0158 23.2641 46.6478 23.0721 47.0958 22.6881C47.5598 22.3041 47.7918 21.7601 47.7918 21.0561C47.7918 20.3361 47.5518 19.7761 47.0718 19.3761C46.5918 18.9601 45.9438 18.7521 45.1278 18.7521H41.8158V23.2641H45.1998Z" fill="#FFFFFF"/>
<path d="M56.5417 11.1201C55.9497 11.1201 55.4537 10.9361 55.0537 10.5681C54.6697 10.1841 54.4777 9.71208 54.4777 9.15208C54.4777 8.59208 54.6697 8.12808 55.0537 7.76008C55.4537 7.37608 55.9497 7.18408 56.5417 7.18408C57.1337 7.18408 57.6217 7.37608 58.0057 7.76008C58.4057 8.12808 58.6057 8.59208 58.6057 9.15208C58.6057 9.71208 58.4057 10.1841 58.0057 10.5681C57.6217 10.9361 57.1337 11.1201 56.5417 11.1201ZM58.1977 12.7041V26.0001H54.8377V12.7041H58.1977Z" fill="#FFFFFF"/>
<path d="M65.8374 8.24008V26.0001H62.4774V8.24008H65.8374Z" fill="#FFFFFF"/>
<path d="M69.2531 19.3041C69.2531 17.9601 69.5171 16.7681 70.0451 15.7281C70.5891 14.6881 71.3171 13.8881 72.2291 13.3281C73.1571 12.7681 74.1891 12.4881 75.3251 12.4881C76.3171 12.4881 77.1811 12.6881 77.9171 13.0881C78.6691 13.4881 79.2691 13.9921 79.7171 14.6001V12.7041H83.1011V26.0001H79.7171V24.0561C79.2851 24.6801 78.6851 25.2001 77.9171 25.6161C77.1651 26.0161 76.2931 26.2161 75.3011 26.2161C74.1811 26.2161 73.1571 25.9281 72.2291 25.3521C71.3171 24.7761 70.5891 23.9681 70.0451 22.9281C69.5171 21.8721 69.2531 20.6641 69.2531 19.3041ZM79.7171 19.3521C79.7171 18.5361 79.5571 17.8401 79.2371 17.2641C78.9171 16.6721 78.4851 16.2241 77.9411 15.9201C77.3971 15.6001 76.8131 15.4401 76.1891 15.4401C75.5651 15.4401 74.9891 15.5921 74.4611 15.8961C73.9331 16.2001 73.5011 16.6481 73.1651 17.2401C72.8451 17.8161 72.6851 18.5041 72.6851 19.3041C72.6851 20.1041 72.8451 20.8081 73.1651 21.4161C73.5011 22.0081 73.9331 22.4641 74.4611 22.7841C75.0051 23.1041 75.5811 23.2641 76.1891 23.2641C76.8131 23.2641 77.3971 23.1121 77.9411 22.8081C78.4851 22.4881 78.9171 22.0401 79.2371 21.4641C79.5571 20.8721 79.7171 20.1681 79.7171 19.3521Z" fill="#FFFFFF"/>
<path d="M91.2547 15.4641V21.8961C91.2547 22.3441 91.3587 22.6721 91.5667 22.8801C91.7907 23.0721 92.1587 23.1681 92.6707 23.1681H94.2307V26.0001H92.1187C89.2867 26.0001 87.8707 24.6241 87.8707 21.8721V15.4641H86.2867V12.7041H87.8707V9.41608H91.2547V12.7041H94.2307V15.4641H91.2547Z" fill="#FFFFFF"/>
<path d="M103.511 26.2161C102.231 26.2161 101.079 25.9361 100.055 25.3761C99.0314 24.8001 98.2234 23.9921 97.6314 22.9521C97.0554 21.9121 96.7674 20.7121 96.7674 19.3521C96.7674 17.9921 97.0634 16.7921 97.6554 15.7521C98.2634 14.7121 99.0874 13.9121 100.127 13.3521C101.167 12.7761 102.327 12.4881 103.607 12.4881C104.887 12.4881 106.047 12.7761 107.087 13.3521C108.127 13.9121 108.943 14.7121 109.535 15.7521C110.143 16.7921 110.447 17.9921 110.447 19.3521C110.447 20.7121 110.135 21.9121 109.511 22.9521C108.903 23.9921 108.071 24.8001 107.015 25.3761C105.975 25.9361 104.807 26.2161 103.511 26.2161ZM103.511 23.2881C104.119 23.2881 104.687 23.1441 105.215 22.8561C105.759 22.5521 106.191 22.1041 106.511 21.5121C106.831 20.9201 106.991 20.2001 106.991 19.3521C106.991 18.0881 106.655 17.1201 105.983 16.4481C105.327 15.7601 104.519 15.4161 103.559 15.4161C102.599 15.4161 101.791 15.7601 101.135 16.4481C100.495 17.1201 100.175 18.0881 100.175 19.3521C100.175 20.6161 100.487 21.5921 101.111 22.2801C101.751 22.9521 102.551 23.2881 103.511 23.2881Z" fill="#FFFFFF"/>
<path d="M121.24 12.5121C122.824 12.5121 124.104 13.0161 125.08 14.0241C126.056 15.0161 126.544 16.4081 126.544 18.2001V26.0001H123.184V18.6561C123.184 17.6001 122.92 16.7921 122.392 16.2321C121.864 15.6561 121.144 15.3681 120.232 15.3681C119.304 15.3681 118.568 15.6561 118.024 16.2321C117.496 16.7921 117.232 17.6001 117.232 18.6561V26.0001H113.872V12.7041H117.232V14.3601C117.68 13.7841 118.248 13.3361 118.936 13.0161C119.64 12.6801 120.408 12.5121 121.24 12.5121Z" fill="#FFFFFF"/>
<path fill-rule="evenodd" clip-rule="evenodd" d="M11.998 0.151629C8.80517 0.716762 6.06884 2.18868 3.86019 4.52886C2.04607 6.45095 0.777232 8.88753 0.190869 11.5751C-0.0809026 12.8201 -0.0594416 15.2661 0.236028 16.7335C0.503528 18.0621 1.01127 19.6175 1.55888 20.7859C2.38131 22.5406 4.02832 23.3081 5.48848 22.617C6.12987 22.3135 12.1606 16.5186 11.998 16.3623C11.942 16.3084 9.99681 15.4182 7.67526 14.384C5.35371 13.3497 3.43351 12.4849 3.40829 12.462C3.38296 12.4392 3.59808 12.188 3.88623 11.9038L4.41024 11.387L10.6274 11.5677L16.8447 11.7486L18.6526 9.98299C20.5785 8.10212 20.974 7.83149 22.1279 7.60469C23.1638 7.40117 23.5525 7.78806 23.3456 8.81661C23.1251 9.91307 22.8128 10.3541 20.913 12.2516L19.131 14.0315L19.3119 20.1128L19.4927 26.1941L19.0039 26.6835C18.7351 26.9526 18.4854 27.1729 18.449 27.1729C18.4127 27.1729 17.4983 25.2659 16.4172 22.9349C15.3361 20.604 14.4355 18.6764 14.4158 18.6512C14.3963 18.6261 12.7562 20.206 10.7712 22.162C8.2604 24.6363 7.09541 25.8542 6.94233 26.1644C6.46155 27.1393 6.62245 28.1989 7.41193 29.2564C7.99636 30.0395 11.0411 33.0418 12.9045 34.6725C13.7388 35.4027 14.449 36 14.4829 36C14.5168 36 15.2302 35.3977 16.0683 34.6614C22.7149 28.8226 26.7381 23.4788 28.3412 18.3601C29.9519 13.2174 28.572 7.92618 24.6099 4.05199C22.4998 1.98866 19.8374 0.634411 16.9385 0.149824C15.7392 -0.0506908 13.1352 -0.049789 11.998 0.151629Z" fill="#FFFFFF"/>
</svg>
